<svg xmlns="http://www.w3.org/2000/svg" width="26" height="26" fill="none"><path fill="currentColor" d="M22.51 13.49a.75.75 0 0 0-.008-1.107l-4.401-3.97a.75.75 0 0 0-1.005 1.113l2.967 2.677-11.068.074a.75.75 0 1 0 .01 1.5l11.068-.074-2.931 2.716a.75.75 0 1 0 1.02 1.1z"/><path fill="currentColor" d="M9.945 4.77a.75.75 0 1 0-.01-1.5H9.88c-1.367.01-2.47.017-3.336.14-.9.126-1.655.39-2.253.996s-.852 1.366-.967 2.267c-.11.867-.103 1.97-.094 3.337l.04 6.11c.01 1.367.017 2.47.14 3.336.127.9.39 1.655.996 2.253s1.366.852 2.267.967c.868.11 1.97.103 3.337.094h.055a.75.75 0 1 0-.01-1.5c-1.435.01-2.436.015-3.192-.082-.735-.094-1.124-.272-1.403-.546-.279-.275-.462-.663-.565-1.396-.107-.755-.115-1.756-.125-3.191l-.04-6c-.01-1.435-.014-2.436.082-3.192.094-.735.272-1.125.547-1.403.275-.279.662-.462 1.395-.565.755-.107 1.756-.115 3.191-.125"/></svg>