<svg xmlns="http://www.w3.org/2000/svg" width="56" height="56" fill="none" viewBox="0 0 56 56"><g fill="currentColor" clip-path="url(#a)"><path d="M28 50.6a4.7 4.7 0 1 0 0-9.3 4.7 4.7 0 0 0 0 9.3ZM45.4 27.5l.2-.2a2.3 2.3 0 0 0-.8-3.3 32 32 0 0 0-19.4-4.6l5 5a27 27 0 0 1 11.8 3.9 2.3 2.3 0 0 0 3.2-.8ZM51 14.6a43.4 43.4 0 0 0-35.2-4.8l4.1 4c9.8-2 20-.3 28.5 5a2.3 2.3 0 0 0 3-.7l.3-.2a2.3 2.3 0 0 0-.7-3.3Z"/><path d="m4.7 7.4 4.8 4.8a42.4 42.4 0 0 0-5.2 3 2.3 2.3 0 0 0-.1 2.7l.2.3a2.3 2.3 0 0 0 3 .7c1.9-1.1 3.8-2.1 5.8-3l4.9 5a32 32 0 0 0-7 3.2 2.3 2.3 0 0 0-.8 3.3l.2.2a2.3 2.3 0 0 0 3.1.7c2.6-1.6 5.5-2.8 8.6-3.4l5.6 5.6c-3.8 0-7.4 1-10.6 3a2.3 2.3 0 0 0-.7 3.2l.1.3a2.4 2.4 0 0 0 3.2.7 15.9 15.9 0 0 1 14-1.1l11.3 11.2 2.2-2.2L6.9 5.2 4.7 7.4Z"/></g><defs><clipPath id="a"><path fill="#fff" d="M0 0H56V56H0z"/></clipPath></defs></svg>